<svg width="16" height="14" viewBox="0 0 16 14" fill="none" xmlns="http://www.w3.org/2000/svg">
<path fill-rule="evenodd" clip-rule="evenodd" d="M5.36569 0.227806C5.67811 0.531547 5.67811 1.02401 5.36569 1.32775L1.93137 4.66667L5.36569 8.00558C5.67811 8.30932 5.67811 8.80179 5.36569 9.10553C5.05327 9.40927 4.54673 9.40927 4.23431 9.10553L0.234315 5.21664C-0.0781049 4.9129 -0.0781049 4.42044 0.234315 4.11669L4.23431 0.227806C4.54673 -0.0759353 5.05327 -0.0759353 5.36569 0.227806Z" fill="white"/>
<path fill-rule="evenodd" clip-rule="evenodd" d="M0 4.66645C0 4.23689 0.358172 3.88867 0.8 3.88867H7.2C12.0602 3.88867 16 7.71901 16 12.4442V13.222C16 13.6516 15.6418 13.9998 15.2 13.9998C14.7582 13.9998 14.4 13.6516 14.4 13.222V12.4442C14.4 8.57812 11.1766 5.44423 7.2 5.44423H0.8C0.358172 5.44423 0 5.096 0 4.66645Z" fill="white"/>
</svg>
