<svg width="16" height="16" viewBox="0 0 16 16" fill="none" xmlns="http://www.w3.org/2000/svg">
<path fill-rule="evenodd" clip-rule="evenodd" d="M5.83588 1.66756C5.98591 1.53117 6.18939 1.45455 6.40156 1.45455H9.60156C9.81374 1.45455 10.0172 1.53117 10.1672 1.66756C10.3173 1.80395 10.4016 1.98893 10.4016 2.18182V2.90909H5.60156V2.18182C5.60156 1.98893 5.68585 1.80395 5.83588 1.66756ZM12.0016 2.18182V2.90909H13.6016C13.6091 2.90909 13.6166 2.90919 13.6241 2.90937H15.2C15.6418 2.90937 16 3.23499 16 3.63665C16 4.03831 15.6418 4.36392 15.2 4.36392H14.4016V13.8182C14.4016 14.3968 14.1487 14.9518 13.6986 15.361C13.2485 15.7701 12.6381 16 12.0016 16H4.00156C3.36504 16 2.75459 15.7701 2.30451 15.361C1.85442 14.9518 1.60156 14.3968 1.60156 13.8182V4.36392H0.8C0.358172 4.36392 0 4.03831 0 3.63665C0 3.23499 0.358172 2.90937 0.8 2.90937H2.37899C2.38649 2.90919 2.39401 2.90909 2.40156 2.90909H4.00156V2.18182C4.00156 1.60316 4.25442 1.04821 4.70451 0.63904C5.15459 0.229869 5.76504 0 6.40156 0H9.60156C10.2381 0 10.8485 0.229869 11.2986 0.63904C11.7487 1.04821 12.0016 1.60316 12.0016 2.18182ZM3.20156 4.36392V13.8182C3.20156 14.0111 3.28585 14.1961 3.43588 14.3324C3.58591 14.4688 3.78939 14.5455 4.00156 14.5455H12.0016C12.2137 14.5455 12.4172 14.4688 12.5673 14.3324C12.7173 14.1961 12.8016 14.0111 12.8016 13.8182V4.36392H3.20156Z" fill="white"/>
</svg>
