<svg width="16" height="16" viewBox="0 0 16 16" fill="none" xmlns="http://www.w3.org/2000/svg">
<path d="M12.6679 7.99952C12.2992 7.99952 12.0012 8.29824 12.0012 8.66617V13.9997C12.0012 14.367 11.7025 14.6663 11.3345 14.6663H2.0002C1.63212 14.6663 1.33351 14.367 1.33351 13.9997V4.66607C1.33351 4.29875 1.63212 3.99942 2.0002 3.99942H7.33411C7.7028 3.99942 8.00081 3.70071 8.00081 3.33278C8.00081 2.96473 7.7028 2.66602 7.33411 2.66602H2.0002C0.897429 2.66602 0 3.56338 0 4.66607V13.9997C0 15.1024 0.897429 15.9997 2.0002 15.9997H11.3345C12.4373 15.9997 13.3347 15.1024 13.3347 13.9997V8.66617C13.3347 8.2975 13.0366 7.99952 12.6679 7.99952Z" fill="white"/>
<path d="M6.25276 7.39198C6.20613 7.43861 6.17475 7.49794 6.16144 7.5619L5.69008 9.91939C5.66811 10.0286 5.70278 10.1413 5.7814 10.2207C5.84476 10.284 5.9301 10.318 6.01751 10.318C6.03875 10.318 6.06085 10.316 6.08282 10.3114L8.43975 9.84004C8.50506 9.82661 8.5644 9.79536 8.61042 9.74861L13.8856 4.47381L11.5287 2.11719L6.25276 7.39198Z" fill="white"/>
<path d="M15.5101 0.487531C14.8601 -0.16251 13.8026 -0.16251 13.1532 0.487531L12.2305 1.41016L14.5874 3.76691L15.5101 2.84416C15.8248 2.53018 15.9982 2.11147 15.9982 1.66615C15.9982 1.22083 15.8248 0.802114 15.5101 0.487531Z" fill="white"/>
</svg>
