<svg width="14" height="14" viewBox="0 0 14 14" fill="none" xmlns="http://www.w3.org/2000/svg">
<path d="M13.9416 5.25767C14.0809 5.70449 13.9669 6.18574 13.6442 6.51369L11.182 9.01575C11.1775 9.0203 11.1754 9.02687 11.1765 9.03329L11.7578 12.5662C11.8339 13.0293 11.6547 13.4885 11.2901 13.7646C11.0842 13.9207 10.8431 14 10.6005 14C10.4136 14 10.2259 13.953 10.0524 13.8579L7.0089 12.1899C7.00337 12.1869 6.99669 12.1868 6.99117 12.1899L3.94766 13.8579C3.54878 14.0765 3.07449 14.0409 2.70985 13.7646C2.34528 13.4885 2.16605 13.0293 2.24224 12.5663L2.82349 9.03329C2.82459 9.02687 2.82253 9.0203 2.81803 9.01575L0.355784 6.51369C0.0330984 6.18574 -0.0808661 5.70449 0.0584096 5.25767C0.197685 4.81084 0.561228 4.49133 1.00719 4.42376L4.40994 3.90829C4.41617 3.90729 4.4215 3.90327 4.42427 3.89744L5.94602 0.683092C6.14543 0.261785 6.54925 0 6.99997 0C7.45069 0 7.85457 0.261785 8.05398 0.683092L9.57567 3.89744C9.57843 3.90327 9.58376 3.90736 9.59 3.90829L12.9928 4.42376C13.4388 4.49133 13.8023 4.81084 13.9416 5.25767Z" fill="#FFFF00"/>
</svg>
