<svg width="16" height="16" viewBox="0 0 16 16" fill="none" xmlns="http://www.w3.org/2000/svg">
<path d="M18.5509 10.8129C18.3566 10.7642 18.1624 10.8129 17.9924 10.9348C17.3611 11.4708 16.6327 11.9094 15.8314 12.2018C15.0787 12.4942 14.2531 12.6404 13.379 12.6404C11.4122 12.6404 9.61538 11.8363 8.32847 10.5449C7.04157 9.25349 6.24028 7.45039 6.24028 5.47672C6.24028 4.64827 6.38597 3.84418 6.62878 3.11319C6.89588 2.33347 7.28438 1.62685 7.79428 1.01769C8.01282 0.749663 7.96425 0.359802 7.69716 0.140506C7.52719 0.0186745 7.33294 -0.0300581 7.13869 0.0186745C5.07478 0.579099 3.27797 1.82178 1.99106 3.47869C0.752719 5.11123 0 7.13363 0 9.35096C0 12.0069 1.06838 14.4191 2.81663 16.1735C4.56488 17.9279 6.96872 19 9.61538 19C11.8493 19 13.9132 18.2203 15.5643 16.9289C17.2397 15.6131 18.4538 13.7369 18.9637 11.5927C19.0851 11.2272 18.8908 10.886 18.5509 10.8129ZM14.8359 15.9055C13.4275 17.0263 11.6307 17.7086 9.66394 17.7086C7.35722 17.7086 5.26903 16.7583 3.7636 15.2476C2.25816 13.7369 1.31119 11.6414 1.31119 9.32659C1.31119 7.40165 1.9425 5.64728 3.03516 4.23404C3.78788 3.25939 4.73485 2.4553 5.8275 1.89488C5.7061 2.16291 5.58469 2.43094 5.48756 2.72333C5.17191 3.60052 5.02622 4.52643 5.02622 5.50108C5.02622 7.81588 5.97319 9.93575 7.47863 11.4465C8.98407 12.9572 11.0965 13.9074 13.4033 13.9074C14.4231 13.9074 15.3943 13.7369 16.2927 13.3958C16.6084 13.2739 16.924 13.1521 17.2154 13.0059C16.6327 14.1267 15.8314 15.1258 14.8359 15.9055Z" fill="white"/>
</svg>
