<svg width="13" height="14" viewBox="0 0 13 14" fill="none" xmlns="http://www.w3.org/2000/svg">
<path d="M6.50001 7.88574C2.30844 7.88574 0 9.87571 0 13.4892C0 13.7714 0.22792 14.0001 0.509135 14.0001H12.4909C12.7721 14.0001 13 13.7714 13 13.4892C13 9.8759 10.6916 7.88574 6.50001 7.88574ZM1.0368 12.9782C1.23706 10.2765 3.07249 8.90766 6.50001 8.90766C9.92753 8.90766 11.763 10.2765 11.9634 12.9782H1.0368Z" fill="black" fill-opacity="0.3"/>
<path d="M6.49984 0C4.57444 0 3.12256 1.48635 3.12256 3.45726C3.12256 5.48589 4.63759 7.13608 6.49984 7.13608C8.36208 7.13608 9.87711 5.48589 9.87711 3.45742C9.87711 1.48635 8.42524 0 6.49984 0ZM6.49984 6.11436C5.19899 6.11436 4.14083 4.92247 4.14083 3.45742C4.14083 2.04619 5.13297 1.02189 6.49984 1.02189C7.84482 1.02189 8.85884 2.06883 8.85884 3.45742C8.85884 4.92247 7.80068 6.11436 6.49984 6.11436Z" fill="black" fill-opacity="0.3"/>
</svg>
